<svg xmlns="http://www.w3.org/2000/svg" width="375" viewBox="0 0 375 375" height="375" version="1.0"><defs><clipPath id="a"><path d="M 68.273438 155.855469 L 144.773438 155.855469 L 144.773438 221.855469 L 68.273438 221.855469 Z M 68.273438 155.855469"/></clipPath><clipPath id="b"><path d="M 86.425781 168.871094 L 126.175781 168.871094 L 126.175781 208.621094 L 86.425781 208.621094 Z M 86.425781 168.871094"/></clipPath></defs><g clip-path="url(#a)"><path fill="#F14B2C" d="M 144.742188 188.855469 L 125.628906 221.855469 L 87.417969 221.855469 L 68.304688 188.855469 L 87.417969 155.855469 L 125.628906 155.855469 Z M 144.742188 188.855469"/></g><path fill="#F14B2C" d="M 87.488281 216.933594 L 72.621094 191.261719 C 71.761719 189.78125 71.761719 187.949219 72.621094 186.453125 L 87.488281 160.78125 C 88.347656 159.300781 89.929688 158.378906 91.667969 158.378906 L 121.398438 158.378906 C 123.117188 158.378906 124.703125 159.285156 125.578125 160.78125 L 140.445312 186.453125 C 141.304688 187.933594 141.304688 189.765625 140.445312 191.261719 L 125.578125 216.933594 C 124.71875 218.414062 123.136719 219.335938 121.398438 219.335938 L 91.648438 219.335938 C 89.929688 219.335938 88.347656 218.414062 87.488281 216.933594 Z M 87.488281 216.933594"/><path fill="#F14B2C" d="M 139.636719 186.925781 L 124.753906 161.25 C 124.0625 160.058594 122.765625 159.320312 121.382812 159.320312 L 91.648438 159.320312 C 90.269531 159.320312 88.96875 160.058594 88.277344 161.25 L 73.414062 186.925781 C 73.058594 187.53125 72.890625 188.203125 72.890625 188.855469 C 72.890625 189.511719 73.058594 190.203125 73.414062 190.789062 L 88.277344 216.464844 C 88.96875 217.65625 90.269531 218.394531 91.648438 218.394531 L 121.382812 218.394531 C 122.765625 218.394531 124.0625 217.65625 124.753906 216.464844 L 139.636719 190.789062 C 139.972656 190.203125 140.140625 189.53125 140.140625 188.855469 C 140.140625 188.183594 139.972656 187.511719 139.636719 186.925781 Z M 139.484375 190.707031 L 124.617188 216.378906 C 123.960938 217.523438 122.714844 218.226562 121.398438 218.226562 L 91.648438 218.226562 C 90.316406 218.226562 89.085938 217.523438 88.429688 216.378906 L 73.5625 190.707031 C 73.226562 190.132812 73.074219 189.496094 73.074219 188.855469 C 73.074219 188.21875 73.242188 187.582031 73.5625 187.007812 L 88.429688 161.335938 C 89.085938 160.191406 90.335938 159.488281 91.648438 159.488281 L 121.382812 159.488281 C 122.714844 159.488281 123.945312 160.191406 124.601562 161.335938 L 139.484375 187.007812 C 139.820312 187.582031 139.972656 188.21875 139.972656 188.855469 C 139.972656 189.496094 139.804688 190.132812 139.484375 190.707031 Z M 139.484375 190.707031"/><g clip-path="url(#b)"><path fill="#FFF" d="M 112.261719 179.800781 L 112.261719 168.871094 L 100.339844 168.871094 L 100.339844 179.800781 L 106.300781 185.765625 Z M 97.355469 182.78125 L 86.425781 182.78125 L 86.425781 194.707031 L 97.355469 194.707031 L 103.320312 188.746094 Z M 100.339844 197.6875 L 100.339844 208.621094 L 112.261719 208.621094 L 112.261719 197.6875 L 106.300781 191.726562 Z M 115.246094 182.78125 L 109.28125 188.746094 L 115.246094 194.707031 L 126.175781 194.707031 L 126.175781 182.78125 Z M 115.246094 182.78125"/></g><g><g><g><path d="M 2.296875 -21.515625 L 11.640625 -21.515625 C 13.828125 -21.515625 15.566406 -20.984375 16.859375 -19.921875 C 18.160156 -18.859375 18.8125 -17.507812 18.8125 -15.875 C 18.8125 -13.4375 17.390625 -11.789062 14.546875 -10.9375 C 16.003906 -10.726562 17.160156 -10.125 18.015625 -9.125 C 18.867188 -8.125 19.296875 -6.953125 19.296875 -5.609375 C 19.296875 -3.890625 18.664062 -2.523438 17.40625 -1.515625 C 16.15625 -0.503906 14.410156 0 12.171875 0 L 2.296875 0 Z M 7.53125 -17.53125 L 7.53125 -12.875 L 10.96875 -12.875 C 11.726562 -12.875 12.335938 -13.066406 12.796875 -13.453125 C 13.253906 -13.835938 13.484375 -14.410156 13.484375 -15.171875 C 13.484375 -15.941406 13.253906 -16.523438 12.796875 -16.921875 C 12.335938 -17.328125 11.726562 -17.53125 10.96875 -17.53125 Z M 7.53125 -3.984375 L 11.484375 -3.984375 C 12.203125 -3.984375 12.796875 -4.195312 13.265625 -4.625 C 13.734375 -5.050781 13.96875 -5.640625 13.96875 -6.390625 C 13.96875 -7.148438 13.742188 -7.753906 13.296875 -8.203125 C 12.847656 -8.660156 12.265625 -8.890625 11.546875 -8.890625 L 7.53125 -8.890625 Z M 7.53125 -3.984375" transform="translate(156.54 178.916)"/></g></g></g><g><g><g><path d="M 15.96875 0 L 14.765625 -3.609375 L 7.046875 -3.609375 L 5.859375 0 L 0.28125 0 L 7.75 -21.578125 L 14.125 -21.578125 L 21.578125 0 Z M 8.359375 -7.59375 L 13.453125 -7.59375 L 10.90625 -15.265625 Z M 8.359375 -7.59375" transform="translate(175.8 178.916)"/></g></g></g><g><g><g><path d="M 0.828125 -17.53125 L 0.828125 -21.515625 L 17.796875 -21.515625 L 17.796875 -17.53125 L 11.921875 -17.53125 L 11.921875 0 L 6.671875 0 L 6.671875 -17.53125 Z M 0.828125 -17.53125" transform="translate(196.253 178.916)"/></g></g></g><g><g><g><path d="M 15.96875 0 L 14.765625 -3.609375 L 7.046875 -3.609375 L 5.859375 0 L 0.28125 0 L 7.75 -21.578125 L 14.125 -21.578125 L 21.578125 0 Z M 8.359375 -7.59375 L 13.453125 -7.59375 L 10.90625 -15.265625 Z M 8.359375 -7.59375" transform="translate(213.49 178.916)"/></g></g></g><g><g><g><path d="M 2.296875 -21.515625 L 7.53125 -21.515625 L 7.53125 -3.984375 L 14.0625 -3.984375 L 14.0625 0 L 2.296875 0 Z M 2.296875 -21.515625" transform="translate(233.944 178.916)"/></g></g></g><g><g><g><path d="M 15.84375 -21.515625 L 21.078125 -21.515625 L 21.078125 0 L 15.84375 0 L 15.84375 -8.921875 L 7.53125 -8.921875 L 7.53125 0 L 2.296875 0 L 2.296875 -21.515625 L 7.53125 -21.515625 L 7.53125 -12.90625 L 15.84375 -12.90625 Z M 15.84375 -21.515625" transform="translate(247.232 178.916)"/></g></g></g><g><g><g><path d="M 15.96875 0 L 14.765625 -3.609375 L 7.046875 -3.609375 L 5.859375 0 L 0.28125 0 L 7.75 -21.578125 L 14.125 -21.578125 L 21.578125 0 Z M 8.359375 -7.59375 L 13.453125 -7.59375 L 10.90625 -15.265625 Z M 8.359375 -7.59375" transform="translate(269.216 178.916)"/></g></g></g><g><g><g><path d="M 15.3125 -21.578125 L 15.3125 -17.59375 L 7.53125 -17.59375 L 7.53125 -12.96875 L 14.40625 -12.96875 L 14.40625 -8.984375 L 7.53125 -8.984375 L 7.53125 -3.984375 L 15.3125 -3.984375 L 15.3125 0 L 2.296875 0 L 2.296875 -21.578125 Z M 15.3125 -21.578125" transform="translate(156.54 204.879)"/></g></g></g><g><g><g><path d="M 2.140625 -8.578125 L 2.140625 -12.9375 L 15.625 -12.9375 L 15.625 -8.578125 Z M 2.140625 -8.578125" transform="translate(172.676 204.879)"/></g></g></g><g><g><g><path d="M 9.59375 -17.671875 C 8.9375 -17.671875 8.398438 -17.5 7.984375 -17.15625 C 7.566406 -16.8125 7.359375 -16.3125 7.359375 -15.65625 C 7.359375 -15 7.550781 -14.472656 7.9375 -14.078125 C 8.320312 -13.679688 8.828125 -13.375 9.453125 -13.15625 C 10.078125 -12.945312 10.769531 -12.742188 11.53125 -12.546875 C 12.300781 -12.347656 13.0625 -12.109375 13.8125 -11.828125 C 14.570312 -11.554688 15.265625 -11.21875 15.890625 -10.8125 C 16.515625 -10.40625 17.019531 -9.828125 17.40625 -9.078125 C 17.789062 -8.335938 17.984375 -7.445312 17.984375 -6.40625 C 17.984375 -4.582031 17.242188 -3.019531 15.765625 -1.71875 C 14.285156 -0.425781 12.332031 0.21875 9.90625 0.21875 C 7.488281 0.21875 5.539062 -0.363281 4.0625 -1.53125 C 2.582031 -2.695312 1.84375 -4.351562 1.84375 -6.5 L 7.421875 -6.5 C 7.554688 -4.78125 8.429688 -3.921875 10.046875 -3.921875 C 10.804688 -3.921875 11.398438 -4.117188 11.828125 -4.515625 C 12.253906 -4.910156 12.46875 -5.414062 12.46875 -6.03125 C 12.46875 -6.644531 12.273438 -7.144531 11.890625 -7.53125 C 11.503906 -7.925781 11 -8.234375 10.375 -8.453125 C 9.75 -8.679688 9.050781 -8.890625 8.28125 -9.078125 C 7.519531 -9.273438 6.757812 -9.515625 6 -9.796875 C 5.25 -10.085938 4.5625 -10.429688 3.9375 -10.828125 C 3.3125 -11.222656 2.804688 -11.796875 2.421875 -12.546875 C 2.035156 -13.296875 1.84375 -14.179688 1.84375 -15.203125 C 1.84375 -17.203125 2.585938 -18.800781 4.078125 -20 C 5.566406 -21.207031 7.46875 -21.8125 9.78125 -21.8125 C 12.101562 -21.8125 13.976562 -21.285156 15.40625 -20.234375 C 16.84375 -19.179688 17.59375 -17.523438 17.65625 -15.265625 L 11.953125 -15.265625 C 11.867188 -16.035156 11.617188 -16.628906 11.203125 -17.046875 C 10.785156 -17.460938 10.25 -17.671875 9.59375 -17.671875 Z M 9.59375 -17.671875" transform="translate(189.057 204.879)"/></g></g></g><g><g><g><path d="M 18.6875 -14.921875 C 18.6875 -13.472656 18.164062 -12.070312 17.125 -10.71875 C 16.570312 -10.03125 15.75 -9.460938 14.65625 -9.015625 C 13.5625 -8.578125 12.269531 -8.359375 10.78125 -8.359375 L 7.53125 -8.359375 L 7.53125 0 L 2.296875 0 L 2.296875 -21.515625 L 10.78125 -21.515625 C 13.28125 -21.515625 15.222656 -20.867188 16.609375 -19.578125 C 17.992188 -18.296875 18.6875 -16.742188 18.6875 -14.921875 Z M 7.53125 -12.34375 L 10.78125 -12.34375 C 11.582031 -12.34375 12.210938 -12.578125 12.671875 -13.046875 C 13.128906 -13.515625 13.359375 -14.132812 13.359375 -14.90625 C 13.359375 -15.675781 13.125 -16.304688 12.65625 -16.796875 C 12.1875 -17.285156 11.5625 -17.53125 10.78125 -17.53125 L 7.53125 -17.53125 Z M 7.53125 -12.34375" transform="translate(207.49 204.879)"/></g></g></g><g><g><g><path d="M 16.1875 -6.3125 C 17.21875 -7.4375 17.734375 -8.9375 17.734375 -10.8125 C 17.734375 -12.695312 17.21875 -14.195312 16.1875 -15.3125 C 15.15625 -16.4375 13.773438 -17 12.046875 -17 C 10.328125 -17 8.953125 -16.4375 7.921875 -15.3125 C 6.890625 -14.195312 6.375 -12.695312 6.375 -10.8125 C 6.375 -8.9375 6.890625 -7.4375 7.921875 -6.3125 C 8.953125 -5.1875 10.328125 -4.625 12.046875 -4.625 C 13.773438 -4.625 15.15625 -5.1875 16.1875 -6.3125 Z M 4.25 -2.90625 C 2.113281 -4.988281 1.046875 -7.625 1.046875 -10.8125 C 1.046875 -14 2.113281 -16.628906 4.25 -18.703125 C 6.382812 -20.773438 9 -21.8125 12.09375 -21.8125 C 15.1875 -21.8125 17.789062 -20.773438 19.90625 -18.703125 C 22.019531 -16.628906 23.078125 -14 23.078125 -10.8125 C 23.078125 -7.625 22.015625 -4.988281 19.890625 -2.90625 C 17.765625 -0.820312 15.160156 0.21875 12.078125 0.21875 C 8.992188 0.21875 6.382812 -0.820312 4.25 -2.90625 Z M 4.25 -2.90625" transform="translate(225.646 204.879)"/></g></g></g><g><g><g><path d="M 7.53125 -8.359375 L 7.53125 0 L 2.296875 0 L 2.296875 -21.515625 L 10.78125 -21.515625 C 13.28125 -21.515625 15.222656 -20.867188 16.609375 -19.578125 C 17.992188 -18.296875 18.6875 -16.742188 18.6875 -14.921875 C 18.6875 -13.671875 18.304688 -12.453125 17.546875 -11.265625 C 16.796875 -10.085938 15.5625 -9.253906 13.84375 -8.765625 L 19.125 0 L 12.984375 0 L 8.15625 -8.359375 Z M 7.53125 -17.53125 L 7.53125 -12.34375 L 10.78125 -12.34375 C 11.582031 -12.34375 12.210938 -12.578125 12.671875 -13.046875 C 13.128906 -13.515625 13.359375 -14.132812 13.359375 -14.90625 C 13.359375 -15.675781 13.125 -16.304688 12.65625 -16.796875 C 12.1875 -17.285156 11.5625 -17.53125 10.78125 -17.53125 Z M 7.53125 -17.53125" transform="translate(248.395 204.879)"/></g></g></g><g><g><g><path d="M 0.828125 -17.53125 L 0.828125 -21.515625 L 17.796875 -21.515625 L 17.796875 -17.53125 L 11.921875 -17.53125 L 11.921875 0 L 6.671875 0 L 6.671875 -17.53125 Z M 0.828125 -17.53125" transform="translate(267.47 204.879)"/></g></g></g><g><g><g><path d="M 9.59375 -17.671875 C 8.9375 -17.671875 8.398438 -17.5 7.984375 -17.15625 C 7.566406 -16.8125 7.359375 -16.3125 7.359375 -15.65625 C 7.359375 -15 7.550781 -14.472656 7.9375 -14.078125 C 8.320312 -13.679688 8.828125 -13.375 9.453125 -13.15625 C 10.078125 -12.945312 10.769531 -12.742188 11.53125 -12.546875 C 12.300781 -12.347656 13.0625 -12.109375 13.8125 -11.828125 C 14.570312 -11.554688 15.265625 -11.21875 15.890625 -10.8125 C 16.515625 -10.40625 17.019531 -9.828125 17.40625 -9.078125 C 17.789062 -8.335938 17.984375 -7.445312 17.984375 -6.40625 C 17.984375 -4.582031 17.242188 -3.019531 15.765625 -1.71875 C 14.285156 -0.425781 12.332031 0.21875 9.90625 0.21875 C 7.488281 0.21875 5.539062 -0.363281 4.0625 -1.53125 C 2.582031 -2.695312 1.84375 -4.351562 1.84375 -6.5 L 7.421875 -6.5 C 7.554688 -4.78125 8.429688 -3.921875 10.046875 -3.921875 C 10.804688 -3.921875 11.398438 -4.117188 11.828125 -4.515625 C 12.253906 -4.910156 12.46875 -5.414062 12.46875 -6.03125 C 12.46875 -6.644531 12.273438 -7.144531 11.890625 -7.53125 C 11.503906 -7.925781 11 -8.234375 10.375 -8.453125 C 9.75 -8.679688 9.050781 -8.890625 8.28125 -9.078125 C 7.519531 -9.273438 6.757812 -9.515625 6 -9.796875 C 5.25 -10.085938 4.5625 -10.429688 3.9375 -10.828125 C 3.3125 -11.222656 2.804688 -11.796875 2.421875 -12.546875 C 2.035156 -13.296875 1.84375 -14.179688 1.84375 -15.203125 C 1.84375 -17.203125 2.585938 -18.800781 4.078125 -20 C 5.566406 -21.207031 7.46875 -21.8125 9.78125 -21.8125 C 12.101562 -21.8125 13.976562 -21.285156 15.40625 -20.234375 C 16.84375 -19.179688 17.59375 -17.523438 17.65625 -15.265625 L 11.953125 -15.265625 C 11.867188 -16.035156 11.617188 -16.628906 11.203125 -17.046875 C 10.785156 -17.460938 10.25 -17.671875 9.59375 -17.671875 Z M 9.59375 -17.671875" transform="translate(284.708 204.879)"/></g></g></g><g fill="#F14B2C"><g><g><path d="M 1.140625 0.046875 C 0.984375 0.046875 0.859375 0 0.765625 -0.09375 C 0.671875 -0.195312 0.625 -0.328125 0.625 -0.484375 L 0.625 -5.265625 C 0.625 -5.421875 0.664062 -5.539062 0.75 -5.625 C 0.84375 -5.71875 0.96875 -5.765625 1.125 -5.765625 L 4 -5.765625 C 4.332031 -5.765625 4.5 -5.625 4.5 -5.34375 C 4.5 -5.0625 4.332031 -4.921875 4 -4.921875 L 1.65625 -4.921875 L 1.65625 -3.34375 L 3.828125 -3.34375 C 4.160156 -3.34375 4.328125 -3.203125 4.328125 -2.921875 C 4.328125 -2.648438 4.160156 -2.515625 3.828125 -2.515625 L 1.65625 -2.515625 L 1.65625 -0.484375 C 1.65625 -0.328125 1.609375 -0.195312 1.515625 -0.09375 C 1.421875 0 1.296875 0.046875 1.140625 0.046875 Z M 1.140625 0.046875" transform="translate(156.54 221.656)"/></g></g></g><g fill="#F14B2C"><g><g><path d="M 5.84375 -0.625 C 5.875 -0.550781 5.890625 -0.484375 5.890625 -0.421875 C 5.890625 -0.296875 5.835938 -0.1875 5.734375 -0.09375 C 5.640625 -0.0078125 5.523438 0.03125 5.390625 0.03125 C 5.304688 0.03125 5.222656 0.0078125 5.140625 -0.03125 C 5.066406 -0.0820312 5.007812 -0.15625 4.96875 -0.25 L 4.484375 -1.34375 L 1.609375 -1.34375 L 1.109375 -0.25 C 1.066406 -0.15625 1.003906 -0.0820312 0.921875 -0.03125 C 0.847656 0.0078125 0.765625 0.03125 0.671875 0.03125 C 0.546875 0.03125 0.429688 -0.0078125 0.328125 -0.09375 C 0.234375 -0.1875 0.1875 -0.296875 0.1875 -0.421875 C 0.1875 -0.484375 0.203125 -0.550781 0.234375 -0.625 L 2.484375 -5.46875 C 2.535156 -5.582031 2.609375 -5.664062 2.703125 -5.71875 C 2.804688 -5.78125 2.914062 -5.8125 3.03125 -5.8125 C 3.144531 -5.8125 3.25 -5.78125 3.34375 -5.71875 C 3.445312 -5.664062 3.523438 -5.582031 3.578125 -5.46875 Z M 1.96875 -2.171875 L 4.125 -2.171875 L 3.046875 -4.59375 Z M 1.96875 -2.171875" transform="translate(162.232 221.656)"/></g></g></g><g fill="#F14B2C"><g><g><path d="M 3.1875 0.078125 C 2.632812 0.078125 2.148438 -0.0390625 1.734375 -0.28125 C 1.316406 -0.519531 0.992188 -0.863281 0.765625 -1.3125 C 0.546875 -1.757812 0.4375 -2.285156 0.4375 -2.890625 C 0.4375 -3.484375 0.546875 -4 0.765625 -4.4375 C 0.992188 -4.882812 1.316406 -5.226562 1.734375 -5.46875 C 2.148438 -5.707031 2.632812 -5.828125 3.1875 -5.828125 C 3.550781 -5.828125 3.890625 -5.773438 4.203125 -5.671875 C 4.523438 -5.566406 4.804688 -5.414062 5.046875 -5.21875 C 5.117188 -5.15625 5.164062 -5.09375 5.1875 -5.03125 C 5.21875 -4.976562 5.234375 -4.910156 5.234375 -4.828125 C 5.234375 -4.703125 5.203125 -4.597656 5.140625 -4.515625 C 5.078125 -4.429688 5 -4.390625 4.90625 -4.390625 C 4.789062 -4.390625 4.675781 -4.429688 4.5625 -4.515625 C 4.332031 -4.679688 4.113281 -4.800781 3.90625 -4.875 C 3.707031 -4.945312 3.488281 -4.984375 3.25 -4.984375 C 2.675781 -4.984375 2.242188 -4.804688 1.953125 -4.453125 C 1.660156 -4.097656 1.515625 -3.578125 1.515625 -2.890625 C 1.515625 -2.191406 1.660156 -1.664062 1.953125 -1.3125 C 2.242188 -0.957031 2.675781 -0.78125 3.25 -0.78125 C 3.476562 -0.78125 3.691406 -0.816406 3.890625 -0.890625 C 4.085938 -0.960938 4.3125 -1.082031 4.5625 -1.25 C 4.625 -1.28125 4.679688 -1.304688 4.734375 -1.328125 C 4.785156 -1.347656 4.84375 -1.359375 4.90625 -1.359375 C 5 -1.359375 5.078125 -1.316406 5.140625 -1.234375 C 5.203125 -1.160156 5.234375 -1.0625 5.234375 -0.9375 C 5.234375 -0.851562 5.21875 -0.78125 5.1875 -0.71875 C 5.164062 -0.65625 5.117188 -0.597656 5.046875 -0.546875 C 4.804688 -0.347656 4.523438 -0.191406 4.203125 -0.078125 C 3.890625 0.0234375 3.550781 0.078125 3.1875 0.078125 Z M 3.1875 0.078125" transform="translate(169.362 221.656)"/></g></g></g><g fill="#F14B2C"><g><g><path d="M 1.125 0 C 0.96875 0 0.84375 -0.0390625 0.75 -0.125 C 0.664062 -0.21875 0.625 -0.34375 0.625 -0.5 L 0.625 -5.265625 C 0.625 -5.421875 0.664062 -5.539062 0.75 -5.625 C 0.84375 -5.71875 0.96875 -5.765625 1.125 -5.765625 L 4.078125 -5.765625 C 4.234375 -5.765625 4.351562 -5.726562 4.4375 -5.65625 C 4.53125 -5.582031 4.578125 -5.484375 4.578125 -5.359375 C 4.578125 -5.210938 4.53125 -5.101562 4.4375 -5.03125 C 4.351562 -4.957031 4.234375 -4.921875 4.078125 -4.921875 L 1.65625 -4.921875 L 1.65625 -3.34375 L 3.921875 -3.34375 C 4.078125 -3.34375 4.195312 -3.304688 4.28125 -3.234375 C 4.363281 -3.160156 4.40625 -3.054688 4.40625 -2.921875 C 4.40625 -2.796875 4.363281 -2.695312 4.28125 -2.625 C 4.195312 -2.550781 4.078125 -2.515625 3.921875 -2.515625 L 1.65625 -2.515625 L 1.65625 -0.828125 L 4.078125 -0.828125 C 4.234375 -0.828125 4.351562 -0.789062 4.4375 -0.71875 C 4.53125 -0.644531 4.578125 -0.539062 4.578125 -0.40625 C 4.578125 -0.28125 4.53125 -0.179688 4.4375 -0.109375 C 4.351562 -0.0351562 4.234375 0 4.078125 0 Z M 1.125 0" transform="translate(175.969 221.656)"/></g></g></g><g fill="#F14B2C"><g><g><path d="M 2.515625 0.046875 C 2.347656 0.046875 2.21875 0 2.125 -0.09375 C 2.03125 -0.195312 1.984375 -0.328125 1.984375 -0.484375 L 1.984375 -4.890625 L 0.484375 -4.890625 C 0.160156 -4.890625 0 -5.035156 0 -5.328125 C 0 -5.617188 0.160156 -5.765625 0.484375 -5.765625 L 4.515625 -5.765625 C 4.847656 -5.765625 5.015625 -5.617188 5.015625 -5.328125 C 5.015625 -5.035156 4.847656 -4.890625 4.515625 -4.890625 L 3.03125 -4.890625 L 3.03125 -0.484375 C 3.03125 -0.328125 2.984375 -0.195312 2.890625 -0.09375 C 2.796875 0 2.671875 0.046875 2.515625 0.046875 Z M 2.515625 0.046875" transform="translate(185.126 221.656)"/></g></g></g><g fill="#F14B2C"><g><g><path d="M 5.125 -5.796875 C 5.28125 -5.796875 5.40625 -5.75 5.5 -5.65625 C 5.59375 -5.5625 5.640625 -5.4375 5.640625 -5.28125 L 5.640625 -0.484375 C 5.640625 -0.328125 5.59375 -0.195312 5.5 -0.09375 C 5.40625 0 5.28125 0.046875 5.125 0.046875 C 4.96875 0.046875 4.84375 0 4.75 -0.09375 C 4.65625 -0.195312 4.609375 -0.328125 4.609375 -0.484375 L 4.609375 -2.5 L 1.65625 -2.5 L 1.65625 -0.484375 C 1.65625 -0.328125 1.609375 -0.195312 1.515625 -0.09375 C 1.421875 0 1.296875 0.046875 1.140625 0.046875 C 0.984375 0.046875 0.859375 0 0.765625 -0.09375 C 0.671875 -0.195312 0.625 -0.328125 0.625 -0.484375 L 0.625 -5.28125 C 0.625 -5.4375 0.671875 -5.5625 0.765625 -5.65625 C 0.859375 -5.75 0.984375 -5.796875 1.140625 -5.796875 C 1.296875 -5.796875 1.421875 -5.75 1.515625 -5.65625 C 1.609375 -5.5625 1.65625 -5.4375 1.65625 -5.28125 L 1.65625 -3.34375 L 4.609375 -3.34375 L 4.609375 -5.28125 C 4.609375 -5.4375 4.65625 -5.5625 4.75 -5.65625 C 4.84375 -5.75 4.96875 -5.796875 5.125 -5.796875 Z M 5.125 -5.796875" transform="translate(191.202 221.656)"/></g></g></g><g fill="#F14B2C"><g><g><path d="M 1.125 0 C 0.96875 0 0.84375 -0.0390625 0.75 -0.125 C 0.664062 -0.21875 0.625 -0.34375 0.625 -0.5 L 0.625 -5.265625 C 0.625 -5.421875 0.664062 -5.539062 0.75 -5.625 C 0.84375 -5.71875 0.96875 -5.765625 1.125 -5.765625 L 4.078125 -5.765625 C 4.234375 -5.765625 4.351562 -5.726562 4.4375 -5.65625 C 4.53125 -5.582031 4.578125 -5.484375 4.578125 -5.359375 C 4.578125 -5.210938 4.53125 -5.101562 4.4375 -5.03125 C 4.351562 -4.957031 4.234375 -4.921875 4.078125 -4.921875 L 1.65625 -4.921875 L 1.65625 -3.34375 L 3.921875 -3.34375 C 4.078125 -3.34375 4.195312 -3.304688 4.28125 -3.234375 C 4.363281 -3.160156 4.40625 -3.054688 4.40625 -2.921875 C 4.40625 -2.796875 4.363281 -2.695312 4.28125 -2.625 C 4.195312 -2.550781 4.078125 -2.515625 3.921875 -2.515625 L 1.65625 -2.515625 L 1.65625 -0.828125 L 4.078125 -0.828125 C 4.234375 -0.828125 4.351562 -0.789062 4.4375 -0.71875 C 4.53125 -0.644531 4.578125 -0.539062 4.578125 -0.40625 C 4.578125 -0.28125 4.53125 -0.179688 4.4375 -0.109375 C 4.351562 -0.0351562 4.234375 0 4.078125 0 Z M 1.125 0" transform="translate(198.528 221.656)"/></g></g></g><g fill="#F14B2C"><g><g><path d="M 5.015625 -3.109375 C 5.140625 -3.109375 5.238281 -3.070312 5.3125 -3 C 5.382812 -2.925781 5.421875 -2.832031 5.421875 -2.71875 L 5.421875 -0.953125 C 5.421875 -0.703125 5.390625 -0.523438 5.328125 -0.421875 C 5.265625 -0.316406 5.128906 -0.234375 4.921875 -0.171875 C 4.703125 -0.0976562 4.445312 -0.0390625 4.15625 0 C 3.875 0.0507812 3.597656 0.078125 3.328125 0.078125 C 2.734375 0.078125 2.21875 -0.0351562 1.78125 -0.265625 C 1.351562 -0.503906 1.019531 -0.847656 0.78125 -1.296875 C 0.550781 -1.742188 0.4375 -2.273438 0.4375 -2.890625 C 0.4375 -3.492188 0.550781 -4.015625 0.78125 -4.453125 C 1.019531 -4.898438 1.347656 -5.238281 1.765625 -5.46875 C 2.191406 -5.707031 2.695312 -5.828125 3.28125 -5.828125 C 4.039062 -5.828125 4.671875 -5.625 5.171875 -5.21875 C 5.234375 -5.15625 5.28125 -5.09375 5.3125 -5.03125 C 5.34375 -4.96875 5.359375 -4.898438 5.359375 -4.828125 C 5.359375 -4.703125 5.320312 -4.597656 5.25 -4.515625 C 5.1875 -4.429688 5.109375 -4.390625 5.015625 -4.390625 C 4.953125 -4.390625 4.894531 -4.398438 4.84375 -4.421875 C 4.800781 -4.441406 4.75 -4.472656 4.6875 -4.515625 C 4.445312 -4.679688 4.222656 -4.800781 4.015625 -4.875 C 3.804688 -4.945312 3.570312 -4.984375 3.3125 -4.984375 C 2.71875 -4.984375 2.269531 -4.804688 1.96875 -4.453125 C 1.664062 -4.097656 1.515625 -3.578125 1.515625 -2.890625 C 1.515625 -1.472656 2.132812 -0.765625 3.375 -0.765625 C 3.75 -0.765625 4.117188 -0.816406 4.484375 -0.921875 L 4.484375 -2.359375 L 3.5625 -2.359375 C 3.425781 -2.359375 3.320312 -2.390625 3.25 -2.453125 C 3.175781 -2.523438 3.140625 -2.617188 3.140625 -2.734375 C 3.140625 -2.859375 3.175781 -2.953125 3.25 -3.015625 C 3.320312 -3.078125 3.425781 -3.109375 3.5625 -3.109375 Z M 5.015625 -3.109375" transform="translate(207.686 221.656)"/></g></g></g><g fill="#F14B2C"><g><g><path d="M 5.84375 -0.625 C 5.875 -0.550781 5.890625 -0.484375 5.890625 -0.421875 C 5.890625 -0.296875 5.835938 -0.1875 5.734375 -0.09375 C 5.640625 -0.0078125 5.523438 0.03125 5.390625 0.03125 C 5.304688 0.03125 5.222656 0.0078125 5.140625 -0.03125 C 5.066406 -0.0820312 5.007812 -0.15625 4.96875 -0.25 L 4.484375 -1.34375 L 1.609375 -1.34375 L 1.109375 -0.25 C 1.066406 -0.15625 1.003906 -0.0820312 0.921875 -0.03125 C 0.847656 0.0078125 0.765625 0.03125 0.671875 0.03125 C 0.546875 0.03125 0.429688 -0.0078125 0.328125 -0.09375 C 0.234375 -0.1875 0.1875 -0.296875 0.1875 -0.421875 C 0.1875 -0.484375 0.203125 -0.550781 0.234375 -0.625 L 2.484375 -5.46875 C 2.535156 -5.582031 2.609375 -5.664062 2.703125 -5.71875 C 2.804688 -5.78125 2.914062 -5.8125 3.03125 -5.8125 C 3.144531 -5.8125 3.25 -5.78125 3.34375 -5.71875 C 3.445312 -5.664062 3.523438 -5.582031 3.578125 -5.46875 Z M 1.96875 -2.171875 L 4.125 -2.171875 L 3.046875 -4.59375 Z M 1.96875 -2.171875" transform="translate(214.743 221.656)"/></g></g></g><g fill="#F14B2C"><g><g><path d="M 5.734375 -5.796875 C 5.890625 -5.796875 6.015625 -5.75 6.109375 -5.65625 C 6.203125 -5.5625 6.25 -5.4375 6.25 -5.28125 L 6.25 -0.4375 C 6.25 -0.289062 6.203125 -0.171875 6.109375 -0.078125 C 6.023438 0.00390625 5.910156 0.046875 5.765625 0.046875 C 5.628906 0.046875 5.519531 0.00390625 5.4375 -0.078125 C 5.351562 -0.171875 5.3125 -0.289062 5.3125 -0.4375 L 5.3125 -3.8125 L 3.921875 -1.171875 C 3.859375 -1.054688 3.785156 -0.96875 3.703125 -0.90625 C 3.628906 -0.851562 3.539062 -0.828125 3.4375 -0.828125 C 3.332031 -0.828125 3.242188 -0.851562 3.171875 -0.90625 C 3.097656 -0.957031 3.023438 -1.046875 2.953125 -1.171875 L 1.5625 -3.765625 L 1.5625 -0.4375 C 1.5625 -0.289062 1.519531 -0.171875 1.4375 -0.078125 C 1.351562 0.00390625 1.238281 0.046875 1.09375 0.046875 C 0.945312 0.046875 0.832031 0.00390625 0.75 -0.078125 C 0.675781 -0.171875 0.640625 -0.289062 0.640625 -0.4375 L 0.640625 -5.28125 C 0.640625 -5.4375 0.679688 -5.5625 0.765625 -5.65625 C 0.859375 -5.75 0.984375 -5.796875 1.140625 -5.796875 C 1.347656 -5.796875 1.515625 -5.679688 1.640625 -5.453125 L 3.453125 -2 L 5.25 -5.453125 C 5.375 -5.679688 5.535156 -5.796875 5.734375 -5.796875 Z M 5.734375 -5.796875" transform="translate(221.873 221.656)"/></g></g></g><g fill="#F14B2C"><g><g><path d="M 1.125 0 C 0.96875 0 0.84375 -0.0390625 0.75 -0.125 C 0.664062 -0.21875 0.625 -0.34375 0.625 -0.5 L 0.625 -5.265625 C 0.625 -5.421875 0.664062 -5.539062 0.75 -5.625 C 0.84375 -5.71875 0.96875 -5.765625 1.125 -5.765625 L 4.078125 -5.765625 C 4.234375 -5.765625 4.351562 -5.726562 4.4375 -5.65625 C 4.53125 -5.582031 4.578125 -5.484375 4.578125 -5.359375 C 4.578125 -5.210938 4.53125 -5.101562 4.4375 -5.03125 C 4.351562 -4.957031 4.234375 -4.921875 4.078125 -4.921875 L 1.65625 -4.921875 L 1.65625 -3.34375 L 3.921875 -3.34375 C 4.078125 -3.34375 4.195312 -3.304688 4.28125 -3.234375 C 4.363281 -3.160156 4.40625 -3.054688 4.40625 -2.921875 C 4.40625 -2.796875 4.363281 -2.695312 4.28125 -2.625 C 4.195312 -2.550781 4.078125 -2.515625 3.921875 -2.515625 L 1.65625 -2.515625 L 1.65625 -0.828125 L 4.078125 -0.828125 C 4.234375 -0.828125 4.351562 -0.789062 4.4375 -0.71875 C 4.53125 -0.644531 4.578125 -0.539062 4.578125 -0.40625 C 4.578125 -0.28125 4.53125 -0.179688 4.4375 -0.109375 C 4.351562 -0.0351562 4.234375 0 4.078125 0 Z M 1.125 0" transform="translate(229.812 221.656)"/></g></g></g></svg>